v 3.044316 151.358902 11.113235
v 3.002543 151.400650 11.113094
v 2.945480 151.415939 11.113044
v 2.888417 151.400650 11.113095
v 2.846644 151.358902 11.113235
v 2.831354 151.301819 11.113425
v 2.846644 151.244736 11.113618
v 2.888417 151.202957 11.113757
v 2.945480 151.187683 11.113808
v 3.002543 151.202957 11.113756
v 3.044316 151.244736 11.113618
v 3.059605 151.301819 11.113426
v 3.138344 151.413239 11.129014
v 3.056830 151.494736 11.128741
v 2.945480 151.524567 11.128641
v 2.834129 151.494736 11.128741
v 2.752615 151.413223 11.129017
v 2.722778 151.301880 11.129388
v 2.752615 151.190521 11.129764
v 2.834129 151.109024 11.130033
v 2.945480 151.079193 11.130135
v 3.056830 151.109024 11.130033
v 3.138344 151.190536 11.129762
v 3.168181 151.301880 11.129389
v 3.216041 151.458176 11.157253
v 3.101688 151.572510 11.156867
v 2.945480 151.614380 11.156728
v 2.789272 151.572510 11.156867
v 2.674919 151.458176 11.157250
v 2.633063 151.301971 11.157774
v 2.674919 151.145737 11.158298
v 2.789272 151.031418 11.158681
v 2.945480 150.989548 11.158823
v 3.101687 151.031418 11.158681
v 3.216041 151.145737 11.158300
v 3.257897 151.301971 11.157774
v 3.266431 151.487396 11.195188
v 3.130781 151.623032 11.194734
v 2.945481 151.672684 11.194567
v 2.760179 151.623032 11.194734
v 2.624530 151.487396 11.195188
v 2.574879 151.302094 11.195810
v 2.624530 151.116791 11.196430
v 2.760179 150.981155 11.196886
v 2.945480 150.931519 11.197051
v 3.130781 150.981155 11.196886
v 3.266431 151.116791 11.196430
v 3.316082 151.302094 11.195810
v 3.283715 151.497528 11.238132
v 3.140760 151.640472 11.237654
v 2.945480 151.692810 11.237478
v 2.750199 151.640472 11.237654
v 2.607245 151.497528 11.238132
v 2.554920 151.302246 11.238788
v 2.607245 151.106949 11.239441
v 2.750199 150.963989 11.239922
v 2.945480 150.911667 11.240096
v 3.140759 150.963989 11.239922
v 3.283715 151.106949 11.239442
v 3.336040 151.302246 11.238787
v 3.266431 151.487686 11.281142
v 3.130782 151.623322 11.280685
v 2.945480 151.672974 11.280519
v 2.760180 151.623322 11.280689
v 2.624530 151.487686 11.281143
v 2.574878 151.302383 11.281764
v 2.624530 151.117065 11.282385
v 2.760180 150.981430 11.282840
v 2.945480 150.931808 11.283006
v 3.130781 150.981430 11.282838
v 3.266432 151.117065 11.282385
v 3.316081 151.302383 11.281764
v 3.216041 151.458725 11.319274
v 3.101688 151.573044 11.318891
v 2.945479 151.614929 11.318750
v 2.789271 151.573059 11.318890
v 2.674919 151.458725 11.319272
v 2.633063 151.302521 11.319796
v 2.674919 151.146301 11.320319
v 2.789271 151.031982 11.320703
v 2.945479 150.990097 11.320845
v 3.101687 151.031967 11.320704
v 3.216041 151.146286 11.320320
v 3.257896 151.302521 11.319797
v 3.138344 151.413971 11.347810
v 3.056830 151.495453 11.347537
v 2.945481 151.525284 11.347437
v 2.834129 151.495453 11.347537
v 2.752615 151.413971 11.347810
v 2.722778 151.302612 11.348183
v 2.752616 151.191254 11.348557
v 2.834129 151.109741 11.348828
v 2.945480 151.079910 11.348931
v 3.056830 151.109741 11.348830
v 3.138344 151.191254 11.348557
v 3.168181 151.302612 11.348184
v 3.044316 151.359741 11.363954
v 3.002542 151.401505 11.363813
v 2.945481 151.416779 11.363762
v 2.888416 151.401505 11.363813
v 2.846644 151.359741 11.363954
v 2.831354 151.302658 11.364142
v 2.846644 151.245575 11.364336
v 2.888416 151.203827 11.364476
v 2.945481 151.188538 11.364528
v 3.002542 151.203827 11.364476
v 3.044316 151.245575 11.364336
v 3.059606 151.302658 11.364144
v 2.945480 151.301804 11.109294
v 2.945480 151.302673 11.368279
v 2.959579 151.354431 11.111525
v 2.906960 151.340347 11.111572
v 2.892860 151.287720 11.111749
v 2.931380 151.249191 11.111878
v 2.984000 151.263290 11.111831
v 2.998100 151.315933 11.111655
v 2.998100 151.316788 11.365823
v 2.959579 151.355286 11.365695
v 2.906960 151.341202 11.365741
v 2.892860 151.288574 11.365917
v 2.931380 151.250046 11.366048
v 2.984000 151.264145 11.366000
vt 0.511592 0.506693
vt 0.506693 0.511592
vt 0.512730 0.522050
vt 0.522050 0.512730
vt 0.500000 0.513385
vt 0.500000 0.525461
vt 0.493307 0.511592
vt 0.487269 0.522050
vt 0.488407 0.506693
vt 0.477950 0.512730
vt 0.486614 0.500000
vt 0.474539 0.500000
vt 0.488407 0.493306
vt 0.477950 0.487269
vt 0.493307 0.488407
vt 0.487269 0.477950
vt 0.500000 0.486615
vt 0.500000 0.474539
vt 0.506693 0.488407
vt 0.512730 0.477950
vt 0.511592 0.493306
vt 0.522050 0.487269
vt 0.513385 0.500000
vt 0.525461 0.500000
vt 0.517522 0.530348
vt 0.530349 0.517522
vt 0.500000 0.535044
vt 0.482478 0.530348
vt 0.469651 0.517522
vt 0.464956 0.500000
vt 0.469651 0.482477
vt 0.482478 0.469652
vt 0.500000 0.464956
vt 0.517522 0.469652
vt 0.530349 0.482477
vt 0.535044 0.500000
vt 0.520598 0.535677
vt 0.535677 0.520599
vt 0.500000 0.541196
vt 0.479401 0.535677
vt 0.464322 0.520599
vt 0.458803 0.500000
vt 0.464322 0.479401
vt 0.479401 0.464322
vt 0.500000 0.458804
vt 0.520598 0.464322
vt 0.535677 0.479401
vt 0.541197 0.500000
vt 0.521658 0.537514
vt 0.537513 0.521659
vt 0.500000 0.543317
vt 0.478341 0.537514
vt 0.462486 0.521659
vt 0.456683 0.500000
vt 0.462486 0.478341
vt 0.478341 0.462486
vt 0.500000 0.456683
vt 0.521658 0.462486
vt 0.537513 0.478341
vt 0.543317 0.500000
vt 0.520598 0.535677
vt 0.535677 0.520599
vt 0.500000 0.541196
vt 0.479401 0.535677
vt 0.464322 0.520599
vt 0.458803 0.500000
vt 0.464322 0.479401
vt 0.479401 0.464322
vt 0.500000 0.458804
vt 0.520598 0.464322
vt 0.535677 0.479401
vt 0.541197 0.500000
vt 0.517522 0.530348
vt 0.530349 0.517522
vt 0.500000 0.535044
vt 0.482478 0.530348
vt 0.469651 0.517522
vt 0.464956 0.500000
vt 0.469651 0.482477
vt 0.482478 0.469652
vt 0.500000 0.464956
vt 0.517522 0.469652
vt 0.530349 0.482477
vt 0.535044 0.500000
vt 0.512730 0.522050
vt 0.522050 0.512730
vt 0.500000 0.525461
vt 0.487269 0.522050
vt 0.477950 0.512730
vt 0.474539 0.500000
vt 0.477950 0.487269
vt 0.487269 0.477950
vt 0.500000 0.474539
vt 0.512730 0.477950
vt 0.522050 0.487269
vt 0.525461 0.500000
vt 0.506693 0.511592
vt 0.511592 0.506693
vt 0.500000 0.513385
vt 0.493307 0.511592
vt 0.488407 0.506693
vt 0.486614 0.500000
vt 0.488407 0.493306
vt 0.493307 0.488407
vt 0.500000 0.486615
vt 0.506693 0.488407
vt 0.511592 0.493306
vt 0.513385 0.500000
vt 0.506244 0.501673
vt 0.501673 0.506244
vt 0.495429 0.504571
vt 0.493755 0.498327
vt 0.498327 0.493756
vt 0.504571 0.495428
vt 0.501673 0.506244
vt 0.506244 0.501673
vt 0.495429 0.504571
vt 0.493755 0.498327
vt 0.498327 0.493756
vt 0.504571 0.495428
vt 0.500000 0.500000
vt 0.500000 0.500000
vn 0.107644 0.059513 -0.992407
vn 0.062830 0.104328 -0.992556
vn -0.000597 0.121324 -0.992613
vn -0.061804 0.104927 -0.992558
vn -0.108247 0.058494 -0.992402
vn -0.124637 -0.002726 -0.992199
vn -0.107662 -0.066169 -0.991983
vn -0.062854 -0.111001 -0.991831
vn 0.000594 -0.128001 -0.991774
vn 0.061811 -0.111596 -0.991830
vn 0.108268 -0.065125 -0.991986
vn 0.124631 -0.003927 -0.992195
vn 0.215072 0.120935 -0.969082
vn 0.124158 0.211834 -0.969387
vn -0.000002 0.245096 -0.969499
vn -0.124169 0.211832 -0.969386
vn -0.215066 0.120928 -0.969084
vn -0.248320 -0.003245 -0.968673
vn -0.215067 -0.127406 -0.968253
vn -0.124163 -0.218327 -0.967945
vn -0.000000 -0.251582 -0.967836
vn 0.124164 -0.218314 -0.967947
vn 0.215076 -0.127398 -0.968252
vn 0.248336 -0.003249 -0.968669
vn 0.383985 0.218691 -0.897067
vn 0.221687 0.380977 -0.897614
vn -0.000003 0.440383 -0.897810
vn -0.221692 0.380979 -0.897612
vn -0.383976 0.218697 -0.897070
vn -0.443364 -0.003002 -0.896336
vn -0.383965 -0.224710 -0.895587
vn -0.221655 -0.386981 -0.895050
vn 0.000000 -0.446346 -0.894860
vn 0.221662 -0.386979 -0.895049
vn 0.383964 -0.224717 -0.895586
vn 0.443368 -0.003002 -0.896334
vn 0.650155 0.373145 -0.661862
vn 0.375344 0.647904 -0.662825
vn 0.000003 0.748448 -0.663193
vn -0.375352 0.647918 -0.662807
vn -0.650165 0.373160 -0.661843
vn -0.750754 -0.002229 -0.660578
vn -0.650169 -0.377560 -0.659339
vn -0.375348 -0.652349 -0.658449
vn -0.000000 -0.752916 -0.658117
vn 0.375355 -0.652359 -0.658435
vn 0.650156 -0.377557 -0.659354
vn 0.750747 -0.002230 -0.660586
vn 0.866010 0.500024 -0.001750
vn 0.499967 0.866039 -0.002992
vn 0.000001 0.999994 -0.003374
vn -0.499970 0.866038 -0.002925
vn -0.866009 0.500026 -0.001687
vn -1.000000 0.000031 -0.000017
vn -0.866027 -0.499995 0.001600
vn -0.499945 -0.866052 0.002888
vn 0.000001 -0.999994 0.003452
vn 0.499934 -0.866058 0.002936
vn 0.866028 -0.499993 0.001608
vn 1.000000 0.000032 -0.000025
vn 0.650145 0.377576 0.659354
vn 0.375341 0.652339 0.658463
vn 0.000019 0.752885 0.658153
vn -0.375349 0.652337 0.658460
vn -0.650153 0.377585 0.659341
vn -0.750742 0.002194 0.660592
vn -0.650111 -0.373146 0.661904
vn -0.375284 -0.647874 0.662888
vn -0.000000 -0.748411 0.663235
vn 0.375301 -0.647900 0.662854
vn 0.650130 -0.373134 0.661893
vn 0.750738 0.002198 0.660597
vn 0.383952 0.224702 0.895595
vn 0.221669 0.386971 0.895051
vn 0.000023 0.446373 0.894847
vn -0.221673 0.386966 0.895052
vn -0.383958 0.224699 0.895593
vn -0.443360 0.003010 0.896338
vn -0.383945 -0.218653 0.897094
vn -0.221680 -0.380946 0.897629
vn -0.000012 -0.440422 0.897791
vn 0.221687 -0.381014 0.897599
vn 0.383968 -0.218677 0.897078
vn 0.443363 0.003010 0.896337
vn 0.215069 0.127431 0.968249
vn 0.124147 0.218329 0.967946
vn 0.000009 0.251571 0.967839
vn -0.124150 0.218315 0.967949
vn -0.215072 0.127422 0.968250
vn -0.248342 0.003247 0.968667
vn -0.215074 -0.120924 0.969082
vn -0.124186 -0.211863 0.969377
vn -0.000012 -0.245117 0.969493
vn 0.124172 -0.211849 0.969382
vn 0.215067 -0.120912 0.969086
vn 0.248337 0.003248 0.968668
vn 0.107642 0.066163 0.991986
vn 0.062817 0.110986 0.991835
vn -0.000602 0.127976 0.991777
vn -0.061783 0.111580 0.991833
vn -0.108254 0.065120 0.991988
vn -0.124657 0.003924 0.992192
vn -0.107639 -0.059506 0.992408
vn -0.062821 -0.104318 0.992558
vn 0.000602 -0.121301 0.992616
vn 0.061796 -0.104921 0.992559
vn 0.108245 -0.058476 0.992403
vn 0.124638 0.002729 0.992198
vn 0.000001 -0.003357 -0.999994
vn -0.000008 0.003355 0.999994
vn 0.006182 0.019680 -0.999787
vn -0.021401 0.018058 -0.999608
vn -0.023029 -0.009516 -0.999690
vn -0.007848 -0.032568 -0.999439
vn 0.016858 -0.020199 -0.999654
vn 0.029245 0.004481 -0.999562
vn 0.029246 0.011190 0.999510
vn 0.006165 0.026397 0.999633
vn -0.021428 0.024760 0.999464
vn -0.023064 -0.002820 0.999730
vn -0.007839 -0.025900 0.999634
vn 0.016873 -0.013514 0.999766
f 1/1/1 2/2/2 14/3/14 13/4/13
f 2/2/2 3/5/3 15/6/15 14/3/14
f 3/5/3 4/7/4 16/8/16 15/6/15
f 4/7/4 5/9/5 17/10/17 16/8/16
f 5/9/5 6/11/6 18/12/18 17/10/17
f 6/11/6 7/13/7 19/14/19 18/12/18
f 7/13/7 8/15/8 20/16/20 19/14/19
f 8/15/8 9/17/9 21/18/21 20/16/20
f 9/17/9 10/19/10 22/20/22 21/18/21
f 10/19/10 11/21/11 23/22/23 22/20/22
f 11/21/11 12/23/12 24/24/24 23/22/23
f 12/23/12 1/1/1 13/4/13 24/24/24
f 13/4/13 14/3/14 26/25/26 25/26/25
f 14/3/14 15/6/15 27/27/27 26/25/26
f 15/6/15 16/8/16 28/28/28 27/27/27
f 16/8/16 17/10/17 29/29/29 28/28/28
f 17/10/17 18/12/18 30/30/30 29/29/29
f 18/12/18 19/14/19 31/31/31 30/30/30
f 19/14/19 20/16/20 32/32/32 31/31/31
f 20/16/20 21/18/21 33/33/33 32/32/32
f 21/18/21 22/20/22 34/34/34 33/33/33
f 22/20/22 23/22/23 35/35/35 34/34/34
f 23/22/23 24/24/24 36/36/36 35/35/35
f 24/24/24 13/4/13 25/26/25 36/36/36
f 25/26/25 26/25/26 38/37/38 37/38/37
f 26/25/26 27/27/27 39/39/39 38/37/38
f 27/27/27 28/28/28 40/40/40 39/39/39
f 28/28/28 29/29/29 41/41/41 40/40/40
f 29/29/29 30/30/30 42/42/42 41/41/41
f 30/30/30 31/31/31 43/43/43 42/42/42
f 31/31/31 32/32/32 44/44/44 43/43/43
f 32/32/32 33/33/33 45/45/45 44/44/44
f 33/33/33 34/34/34 46/46/46 45/45/45
f 34/34/34 35/35/35 47/47/47 46/46/46
f 35/35/35 36/36/36 48/48/48 47/47/47
f 36/36/36 25/26/25 37/38/37 48/48/48
f 37/38/37 38/37/38 50/49/50 49/50/49
f 38/37/38 39/39/39 51/51/51 50/49/50
f 39/39/39 40/40/40 52/52/52 51/51/51
f 40/40/40 41/41/41 53/53/53 52/52/52
f 41/41/41 42/42/42 54/54/54 53/53/53
f 42/42/42 43/43/43 55/55/55 54/54/54
f 43/43/43 44/44/44 56/56/56 55/55/55
f 44/44/44 45/45/45 57/57/57 56/56/56
f 45/45/45 46/46/46 58/58/58 57/57/57
f 46/46/46 47/47/47 59/59/59 58/58/58
f 47/47/47 48/48/48 60/60/60 59/59/59
f 48/48/48 37/38/37 49/50/49 60/60/60
f 49/50/49 50/49/50 62/61/62 61/62/61
f 50/49/50 51/51/51 63/63/63 62/61/62
f 51/51/51 52/52/52 64/64/64 63/63/63
f 52/52/52 53/53/53 65/65/65 64/64/64
f 53/53/53 54/54/54 66/66/66 65/65/65
f 54/54/54 55/55/55 67/67/67 66/66/66
f 55/55/55 56/56/56 68/68/68 67/67/67
f 56/56/56 57/57/57 69/69/69 68/68/68
f 57/57/57 58/58/58 70/70/70 69/69/69
f 58/58/58 59/59/59 71/71/71 70/70/70
f 59/59/59 60/60/60 72/72/72 71/71/71
f 60/60/60 49/50/49 61/62/61 72/72/72
f 61/62/61 62/61/62 74/73/74 73/74/73
f 62/61/62 63/63/63 75/75/75 74/73/74
f 63/63/63 64/64/64 76/76/76 75/75/75
f 64/64/64 65/65/65 77/77/77 76/76/76
f 65/65/65 66/66/66 78/78/78 77/77/77
f 66/66/66 67/67/67 79/79/79 78/78/78
f 67/67/67 68/68/68 80/80/80 79/79/79
f 68/68/68 69/69/69 81/81/81 80/80/80
f 69/69/69 70/70/70 82/82/82 81/81/81
f 70/70/70 71/71/71 83/83/83 82/82/82
f 71/71/71 72/72/72 84/84/84 83/83/83
f 72/72/72 61/62/61 73/74/73 84/84/84
f 73/74/73 74/73/74 86/85/86 85/86/85
f 74/73/74 75/75/75 87/87/87 86/85/86
f 75/75/75 76/76/76 88/88/88 87/87/87
f 76/76/76 77/77/77 89/89/89 88/88/88
f 77/77/77 78/78/78 90/90/90 89/89/89
f 78/78/78 79/79/79 91/91/91 90/90/90
f 79/79/79 80/80/80 92/92/92 91/91/91
f 80/80/80 81/81/81 93/93/93 92/92/92
f 81/81/81 82/82/82 94/94/94 93/93/93
f 82/82/82 83/83/83 95/95/95 94/94/94
f 83/83/83 84/84/84 96/96/96 95/95/95
f 84/84/84 73/74/73 85/86/85 96/96/96
f 85/86/85 86/85/86 98/97/98 97/98/97
f 86/85/86 87/87/87 99/99/99 98/97/98
f 87/87/87 88/88/88 100/100/100 99/99/99
f 88/88/88 89/89/89 101/101/101 100/100/100
f 89/89/89 90/90/90 102/102/102 101/101/101
f 90/90/90 91/91/91 103/103/103 102/102/102
f 91/91/91 92/92/92 104/104/104 103/103/103
f 92/92/92 93/93/93 105/105/105 104/104/104
f 93/93/93 94/94/94 106/106/106 105/105/105
f 94/94/94 95/95/95 107/107/107 106/106/106
f 95/95/95 96/96/96 108/108/108 107/107/107
f 96/96/96 85/86/85 97/98/97 108/108/108
f 2/2/2 1/1/1 116/109/116 111/110/111
f 3/5/3 2/2/2 111/110/111
f 4/7/4 3/5/3 111/110/111 112/111/112
f 5/9/5 4/7/4 112/111/112
f 6/11/6 5/9/5 112/111/112 113/112/113
f 7/13/7 6/11/6 113/112/113
f 8/15/8 7/13/7 113/112/113 114/113/114
f 9/17/9 8/15/8 114/113/114
f 10/19/10 9/17/9 114/113/114 115/114/115
f 11/21/11 10/19/10 115/114/115
f 12/23/12 11/21/11 115/114/115 116/109/116
f 1/1/1 12/23/12 116/109/116
f 97/98/97 98/97/98 118/115/118 117/116/117
f 98/97/98 99/99/99 118/115/118
f 99/99/99 100/100/100 119/117/119 118/115/118
f 100/100/100 101/101/101 119/117/119
f 101/101/101 102/102/102 120/118/120 119/117/119
f 102/102/102 103/103/103 120/118/120
f 103/103/103 104/104/104 121/119/121 120/118/120
f 104/104/104 105/105/105 121/119/121
f 105/105/105 106/106/106 122/120/122 121/119/121
f 106/106/106 107/107/107 122/120/122
f 107/107/107 108/108/108 117/116/117 122/120/122
f 108/108/108 97/98/97 117/116/117
f 116/109/116 115/114/115 109/121/109 111/110/111
f 111/110/111 109/121/109 113/112/113 112/111/112
f 113/112/113 109/121/109 115/114/115 114/113/114
f 119/117/119 120/118/120 110/122/110 118/115/118
f 121/119/121 122/120/122 110/122/110 120/118/120
f 117/116/117 118/115/118 110/122/110 122/120/122
