v 1.876786 151.343475 10.926415
v 1.909874 151.353287 10.946815
v 1.849432 151.253387 10.888892
v 1.892019 151.258591 10.893395
v 1.852164 151.091522 10.871573
v 1.892211 151.111298 10.881915
v 1.886638 150.968994 10.899473
v 1.920057 151.005371 10.895294
v 1.938801 150.887711 10.946734
v 1.959045 150.929886 10.937868
v 1.989493 150.861908 11.014444
v 2.016799 150.905258 10.996726
v 2.115958 150.821701 11.141444
v 2.133616 150.862106 11.124224
v 2.294588 150.769257 11.268332
v 2.300721 150.808823 11.260929
v 2.534984 150.706390 11.374466
v 2.543448 150.742950 11.364704
v 2.775552 150.650772 11.444568
v 2.778762 150.694794 11.426665
v 3.038076 150.634491 11.449269
v 3.030794 150.682663 11.430307
v 3.258575 150.646683 11.401507
v 3.245346 150.693405 11.389369
v 3.461441 150.681763 11.324135
v 3.448507 150.725357 11.317066
v 3.674383 150.741669 11.214201
v 3.657373 150.791641 11.203842
v 3.859028 150.835556 11.070219
v 3.830708 150.882599 11.062300
v 3.975962 150.930008 10.933052
v 3.943867 150.973541 10.927320
v 4.066369 151.030472 10.791236
v 4.032843 151.066483 10.791238
v 4.156401 151.173645 10.575527
v 4.115662 151.201126 10.586681
v 4.179120 151.242188 10.494543
v 4.133907 151.260910 10.519279
v 1.884229 151.313217 10.933573
v 1.863816 151.182526 10.897729
v 1.888088 151.041885 10.903044
v 1.926025 150.942245 10.928247
v 1.972268 150.907272 10.984433
v 2.045459 150.873459 11.087974
v 2.203556 150.829330 11.227105
v 2.401119 150.767059 11.352603
v 2.651869 150.703842 11.436834
v 2.903008 150.666565 11.465463
v 3.163079 150.669464 11.445125
v 3.359251 150.690247 11.383126
v 3.563156 150.729782 11.289286
v 3.785697 150.817520 11.159380
v 3.926492 150.912598 11.013648
v 4.024962 151.001297 10.882391
v 4.120221 151.126007 10.704337
v 4.156287 151.228241 10.550506
v 1.865192 151.309845 10.910607
v 1.869469 151.257507 10.913219
v 1.902335 151.306290 10.915687
v 1.895269 151.353699 10.954664
v 1.843798 151.182693 10.873579
v 1.875088 151.097931 10.902135
v 1.889057 151.187943 10.884185
v 1.866713 151.027298 10.883821
v 1.905865 150.991470 10.915962
v 1.900142 151.060501 10.884719
v 1.913103 150.905197 10.920306
v 1.948891 150.919159 10.950705
v 1.940552 150.954559 10.907919
v 1.958549 150.873444 10.975213
v 2.000964 150.893738 11.024159
v 1.984944 150.918274 10.960791
v 2.042716 150.842438 11.069612
v 2.119133 150.852219 11.158939
v 2.059129 150.885666 11.053796
v 2.200887 150.801300 11.205397
v 2.292810 150.796555 11.292622
v 2.213160 150.841141 11.194309
v 2.402655 150.738846 11.329896
v 2.533391 150.731476 11.395736
v 2.414309 150.777298 11.317560
v 2.654496 150.677841 11.419997
v 2.777129 150.678757 11.460338
v 2.660468 150.717606 11.403799
v 2.904202 150.636688 11.451568
v 3.035610 150.666183 11.463436
v 2.902698 150.682983 11.431950
v 3.159921 150.639954 11.430741
v 3.258646 150.674988 11.420046
v 3.148062 150.688202 11.411125
v 3.361428 150.662399 11.367100
v 3.459245 150.708908 11.340463
v 3.350282 150.708496 11.356282
v 3.566698 150.704605 11.272590
v 3.670787 150.767532 11.232028
v 3.548916 150.752197 11.262830
v 3.779077 150.789444 11.147466
v 3.864273 150.864120 11.082280
v 3.752981 150.839661 11.132872
v 3.922393 150.885422 11.000809
v 3.979458 150.956757 10.946715
v 3.892039 150.929214 10.993481
v 4.022427 150.976303 10.867691
v 4.068245 151.052795 10.806800
v 3.993428 151.016052 10.865710
v 4.120543 151.102890 10.684136
v 4.144826 151.197311 10.598104
v 4.080976 151.136917 10.688461
v 4.166820 151.195312 10.538797
v 4.173341 151.259323 10.523233
v 4.129432 151.233078 10.540265
vt 0.000000 0.000000
vt 1.000000 0.000000
vt 0.000000 0.036934
vt 1.000000 0.036934
vt 0.000000 0.073819
vt 1.000000 0.073819
vt 0.000000 0.107067
vt 1.000000 0.107067
vt 0.000000 0.144524
vt 1.000000 0.144524
vt 0.000000 0.186754
vt 1.000000 0.186754
vt 0.000000 0.231940
vt 1.000000 0.231940
vt 0.000000 0.285003
vt 1.000000 0.285003
vt 0.000000 0.354121
vt 1.000000 0.354121
vt 0.000000 0.433745
vt 1.000000 0.433745
vt 0.000000 0.510456
vt 1.000000 0.510456
vt 0.000000 0.578618
vt 1.000000 0.578618
vt 0.000000 0.645881
vt 1.000000 0.645881
vt 0.000000 0.715814
vt 1.000000 0.715814
vt 0.000000 0.789199
vt 1.000000 0.789199
vt 0.000000 0.853287
vt 1.000000 0.853287
vt 0.000000 0.911460
vt 1.000000 0.911460
vt 0.000000 0.961198
vt 1.000000 0.961198
vt 0.000000 1.000000
vt 1.000000 1.000000
vt 0.500000 0.018409
vt 0.500000 0.055691
vt 0.500000 0.090456
vt 0.500000 0.125118
vt 0.500000 0.165202
vt 0.500000 0.208782
vt 0.500000 0.256883
vt 0.500000 0.317692
vt 0.500000 0.393458
vt 0.500000 0.473025
vt 0.500000 0.545198
vt 0.500000 0.612083
vt 0.500000 0.680298
vt 0.500000 0.752907
vt 0.500000 0.822311
vt 0.500000 0.883167
vt 0.500000 0.937673
vt 0.500000 0.981424
vt 0.000000 0.018409
vt 0.500000 0.036934
vt 1.000000 0.018409
vt 0.500000 0.000000
vt 0.000000 0.055691
vt 0.500000 0.073819
vt 1.000000 0.055691
vt 0.000000 0.090456
vt 0.500000 0.107067
vt 1.000000 0.090456
vt 0.000000 0.125118
vt 0.500000 0.144524
vt 1.000000 0.125118
vt 0.000000 0.165202
vt 0.500000 0.186754
vt 1.000000 0.165202
vt 0.000000 0.208782
vt 0.500000 0.231940
vt 1.000000 0.208782
vt 0.000000 0.256883
vt 0.500000 0.285003
vt 1.000000 0.256883
vt 0.000000 0.317692
vt 0.500000 0.354121
vt 1.000000 0.317692
vt 0.000000 0.393458
vt 0.500000 0.433745
vt 1.000000 0.393458
vt 0.000000 0.473025
vt 0.500000 0.510456
vt 1.000000 0.473025
vt 0.000000 0.545198
vt 0.500000 0.578618
vt 1.000000 0.545198
vt 0.000000 0.612083
vt 0.500000 0.645881
vt 1.000000 0.612083
vt 0.000000 0.680298
vt 0.500000 0.715814
vt 1.000000 0.680298
vt 0.000000 0.752907
vt 0.500000 0.789199
vt 1.000000 0.752907
vt 0.000000 0.822311
vt 0.500000 0.853287
vt 1.000000 0.822311
vt 0.000000 0.883167
vt 0.500000 0.911460
vt 1.000000 0.883167
vt 0.000000 0.937673
vt 0.500000 0.961198
vt 1.000000 0.937673
vt 0.000000 0.981424
vt 0.500000 1.000000
vt 1.000000 0.981424
vn -0.607214 -0.038273 0.793616
vn 0.645877 -0.042454 0.762260
vn -0.608827 -0.025785 0.792884
vn 0.645117 0.057963 0.761883
vn -0.522097 -0.194777 0.830348
vn 0.400950 0.487417 0.775670
vn -0.530963 -0.293366 0.794993
vn -0.184863 0.846141 0.499870
vn -0.725373 -0.184241 0.663241
vn -0.204068 0.849128 0.487173
vn -0.511194 -0.351999 0.784078
vn -0.089831 0.829696 0.550940
vn -0.405485 -0.392402 0.825592
vn -0.016215 0.817140 0.576212
vn -0.398059 -0.393528 0.828665
vn 0.031173 0.806475 0.590445
vn -0.318878 -0.416622 0.851318
vn 0.040639 0.804072 0.593141
vn -0.003949 -0.433788 0.901006
vn 0.100876 0.780846 0.616526
vn 0.266907 -0.425101 0.864899
vn 0.161742 0.777146 0.608181
vn 0.445063 -0.439253 0.780369
vn 0.170841 0.788910 0.590284
vn 0.511901 -0.417060 0.751012
vn 0.126455 0.783287 0.608663
vn 0.600373 -0.396009 0.694787
vn 0.149313 0.786858 0.598799
vn 0.702124 -0.397938 0.590481
vn 0.197788 0.801724 0.564020
vn 0.776941 -0.365958 0.512286
vn 0.208559 0.806581 0.553110
vn 0.862558 -0.304637 0.403968
vn 0.231453 0.820018 0.523450
vn 0.930141 -0.207095 0.303231
vn 0.172127 0.768817 0.615867
vn 0.978289 -0.059573 0.198499
vn 0.025558 0.533246 0.845574
vn 0.016468 -0.029805 0.999420
vn -0.041908 0.088414 0.995202
vn -0.259801 0.192686 0.946243
vn -0.617964 0.453694 0.642092
vn -0.426403 0.318101 0.846754
vn -0.354870 0.296148 0.886772
vn -0.212912 0.266561 0.940007
vn -0.260207 0.270447 0.926904
vn -0.064279 0.213794 0.974762
vn 0.160686 0.206294 0.965206
vn 0.354782 0.208422 0.911422
vn 0.411083 0.222777 0.883958
vn 0.430865 0.236311 0.870926
vn 0.551344 0.250022 0.795933
vn 0.627729 0.271712 0.729471
vn 0.684268 0.300878 0.664266
vn 0.738286 0.343998 0.580172
vn 0.720765 0.297861 0.625921
vn -0.607437 -0.034286 0.793627
vn 0.011916 0.022208 0.999682
vn 0.647189 -0.011217 0.762247
vn 0.025192 -0.051801 0.998340
vn -0.594930 -0.060372 0.801507
vn -0.192023 0.112128 0.974964
vn 0.611406 0.180230 0.770519
vn -0.424803 -0.331474 0.842418
vn -0.493571 0.429250 0.756395
vn 0.018118 0.776464 0.629901
vn -0.762433 -0.126154 0.634651
vn -0.544825 0.367015 0.753966
vn -0.262878 0.854421 0.448173
vn -0.564298 -0.318987 0.761456
vn -0.390074 0.306166 0.868392
vn -0.109404 0.833825 0.541079
vn -0.477426 -0.366106 0.798768
vn -0.272051 0.274368 0.922340
vn -0.073519 0.827337 0.556873
vn -0.359163 -0.406924 0.839890
vn -0.240169 0.279934 0.929492
vn 0.033322 0.805973 0.591014
vn -0.415599 -0.387694 0.822783
vn -0.188810 0.236757 0.953046
vn 0.020808 0.808850 0.587646
vn -0.154671 -0.436143 0.886485
vn 0.058747 0.204091 0.977188
vn 0.075067 0.792473 0.605270
vn 0.137406 -0.425884 0.894283
vn 0.260337 0.210675 0.942253
vn 0.127609 0.774772 0.619229
vn 0.371251 -0.438089 0.818688
vn 0.400806 0.213010 0.891056
vn 0.181695 0.785220 0.591960
vn 0.486905 -0.426305 0.762357
vn 0.414321 0.231151 0.880288
vn 0.145287 0.786224 0.600620
vn 0.544783 -0.405925 0.733782
vn 0.479436 0.247124 0.842063
vn 0.124275 0.782839 0.609688
vn 0.655439 -0.397775 0.642009
vn 0.595149 0.263391 0.759225
vn 0.177475 0.793486 0.582136
vn 0.737630 -0.384785 0.554836
vn 0.654661 0.279652 0.702292
vn 0.209365 0.807089 0.552063
vn 0.821818 -0.338156 0.458547
vn 0.717310 0.332697 0.612192
vn 0.212651 0.808857 0.548206
vn 0.891427 -0.271704 0.362678
vn 0.743031 0.315477 0.590236
vn 0.230788 0.821168 0.521939
vn 0.966523 -0.109951 0.231827
vn 0.664742 0.307085 0.681041
vn 0.072217 0.623556 0.778436
f 1/1/1 57/57/57 39/39/39 60/60/60
f 57/57/57 3/3/3 58/58/58 39/39/39
f 4/4/4 59/59/59 39/39/39 58/58/58
f 59/59/59 2/2/2 60/60/60 39/39/39
f 3/3/3 61/61/61 40/40/40 58/58/58
f 61/61/61 5/5/5 62/62/62 40/40/40
f 6/6/6 63/63/63 40/40/40 62/62/62
f 63/63/63 4/4/4 58/58/58 40/40/40
f 5/5/5 64/64/64 41/41/41 62/62/62
f 64/64/64 7/7/7 65/65/65 41/41/41
f 8/8/8 66/66/66 41/41/41 65/65/65
f 66/66/66 6/6/6 62/62/62 41/41/41
f 7/7/7 67/67/67 42/42/42 65/65/65
f 67/67/67 9/9/9 68/68/68 42/42/42
f 10/10/10 69/69/69 42/42/42 68/68/68
f 69/69/69 8/8/8 65/65/65 42/42/42
f 9/9/9 70/70/70 43/43/43 68/68/68
f 70/70/70 11/11/11 71/71/71 43/43/43
f 12/12/12 72/72/72 43/43/43 71/71/71
f 72/72/72 10/10/10 68/68/68 43/43/43
f 11/11/11 73/73/73 44/44/44 71/71/71
f 73/73/73 13/13/13 74/74/74 44/44/44
f 14/14/14 75/75/75 44/44/44 74/74/74
f 75/75/75 12/12/12 71/71/71 44/44/44
f 13/13/13 76/76/76 45/45/45 74/74/74
f 76/76/76 15/15/15 77/77/77 45/45/45
f 16/16/16 78/78/78 45/45/45 77/77/77
f 78/78/78 14/14/14 74/74/74 45/45/45
f 15/15/15 79/79/79 46/46/46 77/77/77
f 79/79/79 17/17/17 80/80/80 46/46/46
f 18/18/18 81/81/81 46/46/46 80/80/80
f 81/81/81 16/16/16 77/77/77 46/46/46
f 17/17/17 82/82/82 47/47/47 80/80/80
f 82/82/82 19/19/19 83/83/83 47/47/47
f 20/20/20 84/84/84 47/47/47 83/83/83
f 84/84/84 18/18/18 80/80/80 47/47/47
f 19/19/19 85/85/85 48/48/48 83/83/83
f 85/85/85 21/21/21 86/86/86 48/48/48
f 22/22/22 87/87/87 48/48/48 86/86/86
f 87/87/87 20/20/20 83/83/83 48/48/48
f 21/21/21 88/88/88 49/49/49 86/86/86
f 88/88/88 23/23/23 89/89/89 49/49/49
f 24/24/24 90/90/90 49/49/49 89/89/89
f 90/90/90 22/22/22 86/86/86 49/49/49
f 23/23/23 91/91/91 50/50/50 89/89/89
f 91/91/91 25/25/25 92/92/92 50/50/50
f 26/26/26 93/93/93 50/50/50 92/92/92
f 93/93/93 24/24/24 89/89/89 50/50/50
f 25/25/25 94/94/94 51/51/51 92/92/92
f 94/94/94 27/27/27 95/95/95 51/51/51
f 28/28/28 96/96/96 51/51/51 95/95/95
f 96/96/96 26/26/26 92/92/92 51/51/51
f 27/27/27 97/97/97 52/52/52 95/95/95
f 97/97/97 29/29/29 98/98/98 52/52/52
f 30/30/30 99/99/99 52/52/52 98/98/98
f 99/99/99 28/28/28 95/95/95 52/52/52
f 29/29/29 100/100/100 53/53/53 98/98/98
f 100/100/100 31/31/31 101/101/101 53/53/53
f 32/32/32 102/102/102 53/53/53 101/101/101
f 102/102/102 30/30/30 98/98/98 53/53/53
f 31/31/31 103/103/103 54/54/54 101/101/101
f 103/103/103 33/33/33 104/104/104 54/54/54
f 34/34/34 105/105/105 54/54/54 104/104/104
f 105/105/105 32/32/32 101/101/101 54/54/54
f 33/33/33 106/106/106 55/55/55 104/104/104
f 106/106/106 35/35/35 107/107/107 55/55/55
f 36/36/36 108/108/108 55/55/55 107/107/107
f 108/108/108 34/34/34 104/104/104 55/55/55
f 35/35/35 109/109/109 56/56/56 107/107/107
f 109/109/109 37/37/37 110/110/110 56/56/56
f 38/38/38 111/111/111 56/56/56 110/110/110
f 111/111/111 36/36/36 107/107/107 56/56/56
